<mxfile host="app.diagrams.net" modified="2022-05-10T13:27:17.395Z" agent="5.0 (Windows NT 10.0; Win64; x64) AppleWebKit/537.36 (KHTML, like Gecko) Chrome/96.0.4664.110 Safari/537.36" etag="_p4-GBKTnR2lYHvdwjsW" version="18.0.2" type="github">
  <diagram id="prtHgNgQTEPvFCAcTncT" name="Page-1">
    <mxGraphModel dx="915" dy="728" grid="1" gridSize="10" guides="1" tooltips="1" connect="1" arrows="1" fold="1" page="1" pageScale="1" pageWidth="827" pageHeight="1169" math="0" shadow="0">
      <root>
        <mxCell id="0" />
        <mxCell id="1" parent="0" />
        <mxCell id="pZQaORlkqkXgb0r6rNpJ-25" value="" style="rounded=0;whiteSpace=wrap;html=1;fontSize=14;" vertex="1" parent="1">
          <mxGeometry x="70" y="120" width="490" height="330" as="geometry" />
        </mxCell>
        <mxCell id="dNxyNK7c78bLwvsdeMH5-11" value="" style="swimlane;html=1;startSize=20;horizontal=1;containerType=tree;glass=0;" parent="1" vertex="1">
          <mxGeometry x="50" y="90" width="540" height="450" as="geometry" />
        </mxCell>
        <mxCell id="pZQaORlkqkXgb0r6rNpJ-1" value="Realsense Camera" style="rounded=0;whiteSpace=wrap;html=1;" vertex="1" parent="dNxyNK7c78bLwvsdeMH5-11">
          <mxGeometry x="40" y="40" width="120" height="50" as="geometry" />
        </mxCell>
        <mxCell id="pZQaORlkqkXgb0r6rNpJ-2" value="Deep Sort" style="rounded=0;whiteSpace=wrap;html=1;" vertex="1" parent="dNxyNK7c78bLwvsdeMH5-11">
          <mxGeometry x="40" y="150" width="120" height="50" as="geometry" />
        </mxCell>
        <mxCell id="pZQaORlkqkXgb0r6rNpJ-3" style="edgeStyle=orthogonalEdgeStyle;rounded=0;orthogonalLoop=1;jettySize=auto;html=1;exitX=0.5;exitY=1;exitDx=0;exitDy=0;" edge="1" parent="dNxyNK7c78bLwvsdeMH5-11" source="pZQaORlkqkXgb0r6rNpJ-1" target="pZQaORlkqkXgb0r6rNpJ-1">
          <mxGeometry relative="1" as="geometry" />
        </mxCell>
        <mxCell id="pZQaORlkqkXgb0r6rNpJ-7" value="3D Estimater &lt;br&gt;and Publisher" style="rounded=0;whiteSpace=wrap;html=1;" vertex="1" parent="dNxyNK7c78bLwvsdeMH5-11">
          <mxGeometry x="40" y="260" width="120" height="50" as="geometry" />
        </mxCell>
        <mxCell id="pZQaORlkqkXgb0r6rNpJ-8" value="&lt;font style=&quot;font-size: 19px;&quot; color=&quot;#ff3333&quot;&gt;Controller Part&lt;/font&gt;" style="rounded=0;whiteSpace=wrap;html=1;" vertex="1" parent="dNxyNK7c78bLwvsdeMH5-11">
          <mxGeometry x="40" y="370" width="120" height="50" as="geometry" />
        </mxCell>
        <mxCell id="pZQaORlkqkXgb0r6rNpJ-9" value="" style="endArrow=classic;html=1;rounded=0;exitX=0.5;exitY=1;exitDx=0;exitDy=0;entryX=0.5;entryY=0;entryDx=0;entryDy=0;" edge="1" parent="dNxyNK7c78bLwvsdeMH5-11" source="pZQaORlkqkXgb0r6rNpJ-1" target="pZQaORlkqkXgb0r6rNpJ-2">
          <mxGeometry width="50" height="50" relative="1" as="geometry">
            <mxPoint x="420" y="310" as="sourcePoint" />
            <mxPoint x="470" y="260" as="targetPoint" />
          </mxGeometry>
        </mxCell>
        <mxCell id="pZQaORlkqkXgb0r6rNpJ-10" value="" style="endArrow=classic;html=1;rounded=0;exitX=0.5;exitY=1;exitDx=0;exitDy=0;entryX=0.5;entryY=0;entryDx=0;entryDy=0;" edge="1" parent="dNxyNK7c78bLwvsdeMH5-11">
          <mxGeometry width="50" height="50" relative="1" as="geometry">
            <mxPoint x="99.66" y="200" as="sourcePoint" />
            <mxPoint x="99.66" y="260" as="targetPoint" />
          </mxGeometry>
        </mxCell>
        <mxCell id="pZQaORlkqkXgb0r6rNpJ-19" value="" style="endArrow=classic;html=1;rounded=0;exitX=0.5;exitY=1;exitDx=0;exitDy=0;entryX=0.5;entryY=0;entryDx=0;entryDy=0;" edge="1" parent="dNxyNK7c78bLwvsdeMH5-11">
          <mxGeometry width="50" height="50" relative="1" as="geometry">
            <mxPoint x="99.65999999999985" y="310" as="sourcePoint" />
            <mxPoint x="99.65999999999985" y="370" as="targetPoint" />
          </mxGeometry>
        </mxCell>
        <mxCell id="pZQaORlkqkXgb0r6rNpJ-20" value="&lt;font style=&quot;font-size: 14px;&quot;&gt;RGB Image&lt;/font&gt;" style="text;html=1;align=center;verticalAlign=middle;resizable=0;points=[];autosize=1;strokeColor=none;fillColor=none;" vertex="1" parent="dNxyNK7c78bLwvsdeMH5-11">
          <mxGeometry x="115" y="110" width="90" height="20" as="geometry" />
        </mxCell>
        <mxCell id="pZQaORlkqkXgb0r6rNpJ-21" value="&lt;font style=&quot;font-size: 14px;&quot;&gt;Bounding Boxes&lt;/font&gt;" style="text;html=1;align=center;verticalAlign=middle;resizable=0;points=[];autosize=1;strokeColor=none;fillColor=none;rotation=0;" vertex="1" parent="dNxyNK7c78bLwvsdeMH5-11">
          <mxGeometry x="110" y="220" width="120" height="20" as="geometry" />
        </mxCell>
        <mxCell id="pZQaORlkqkXgb0r6rNpJ-22" value="&lt;font style=&quot;font-size: 14px;&quot;&gt;3D Position of &lt;br&gt;Target and Obstacles&lt;/font&gt;" style="text;html=1;align=center;verticalAlign=middle;resizable=0;points=[];autosize=1;strokeColor=none;fillColor=none;rotation=0;" vertex="1" parent="dNxyNK7c78bLwvsdeMH5-11">
          <mxGeometry x="110" y="320" width="150" height="40" as="geometry" />
        </mxCell>
        <mxCell id="pZQaORlkqkXgb0r6rNpJ-24" value="Depth Image" style="text;html=1;align=center;verticalAlign=middle;resizable=0;points=[];autosize=1;strokeColor=none;fillColor=none;fontSize=14;" vertex="1" parent="dNxyNK7c78bLwvsdeMH5-11">
          <mxGeometry x="280" y="160" width="100" height="20" as="geometry" />
        </mxCell>
        <mxCell id="pZQaORlkqkXgb0r6rNpJ-27" value="&lt;font color=&quot;#ff3333&quot; style=&quot;font-size: 19px;&quot;&gt;Detection Part&lt;/font&gt;" style="text;html=1;strokeColor=none;fillColor=none;align=center;verticalAlign=middle;whiteSpace=wrap;rounded=0;fontSize=14;" vertex="1" parent="dNxyNK7c78bLwvsdeMH5-11">
          <mxGeometry x="364" y="50" width="126" height="30" as="geometry" />
        </mxCell>
        <mxCell id="pZQaORlkqkXgb0r6rNpJ-23" value="" style="endArrow=classic;html=1;rounded=0;fontSize=14;entryX=1.004;entryY=0.619;entryDx=0;entryDy=0;entryPerimeter=0;" edge="1" parent="1" target="pZQaORlkqkXgb0r6rNpJ-7">
          <mxGeometry width="50" height="50" relative="1" as="geometry">
            <mxPoint x="210" y="155" as="sourcePoint" />
            <mxPoint x="510" y="330" as="targetPoint" />
            <Array as="points">
              <mxPoint x="330" y="155" />
              <mxPoint x="330" y="380" />
            </Array>
          </mxGeometry>
        </mxCell>
      </root>
    </mxGraphModel>
  </diagram>
</mxfile>
